<svg xmlns="http://www.w3.org/2000/svg" viewBox="0 0 48 48"><g data-name="29-tasks"><path d="M24.714 40H20v-2h4.714c3.8 0 4.87-2.538 5.169-4h-14.6A5.155 5.155 0 0 0 10 39H8a7.156 7.156 0 0 1 7.286-7H31a1 1 0 0 1 1 1 6.868 6.868 0 0 1-7.286 7z"/><path d="M32 48H11a3 3 0 0 1-3-3v-3h2v3a1 1 0 0 0 1 1h20.7l13.964-9.182a.962.962 0 0 0-.011-1.467 1.469 1.469 0 0 0-1.7-.146l-10.438 6.35a1.008 1.008 0 0 1-1 .025l-5-2.7.952-1.76 4.5 2.428L42.92 33.5a3.438 3.438 0 0 1 4.08.374 2.964 2.964 0 0 1-.076 4.5 1.066 1.066 0 0 1-.1.076l-14.273 9.386A1.015 1.015 0 0 1 32 48z"/><path d="M9 47H1a1 1 0 0 1-1-1V36a1 1 0 0 1 1-1h9v2H2v8h7zM8 33H6V9a1 1 0 0 1 .293-.707l8-8A1 1 0 0 1 15 0h22a5.006 5.006 0 0 1 5 5v27h-2V5a3 3 0 0 0-3-3H15.414L8 9.414z"/><path d="M13 10h-2V8h2a1 1 0 0 0 1-1V1h2v6a3 3 0 0 1-3 3zM38 9h-2V7a1 1 0 0 0-1-1h-2V4h2a3 3 0 0 1 3 3zM29 4h2v2h-2zM19 20h-6a1 1 0 0 1-1-1v-6a1 1 0 0 1 1-1h6a1 1 0 0 1 1 1v6a1 1 0 0 1-1 1zm-5-2h4v-4h-4zM19 30h-6a1 1 0 0 1-1-1v-6a1 1 0 0 1 1-1h6a1 1 0 0 1 1 1v6a1 1 0 0 1-1 1zm-5-2h4v-4h-4z"/><path d="m12.293 18.293 6-6 1.414 1.415-6 6zM12.293 28.293l6-6 1.414 1.415-6 6zM26 13h11v2H26zM22 17h15v2H22zM22 23h15v2H22zM22 27h11v2H22zM35 27h2v2h-2zM22 13h2v2h-2z"/></g></svg>